<svg width="97" height="30" fill="none" xmlns="http://www.w3.org/2000/svg"><g clip-path="url(#clip0)"><path d="M27.8 21.3l-.5-1.1-.7-1.6c-2-4.5-4.3-9-6.7-13.6v-.2L19 3.4l-1-1.6A5 5 0 0014 0a5.1 5.1 0 00-3.9 1.8l-1 1.6L8.3 5V5C6 9.5 3.6 14.1 1.5 18.6l-.7 1.6-.5 1A6.3 6.3 0 004 29.6c1 .4 2.2.6 3.3.4a8 8 0 003-1c1.2-.7 2.4-1.7 3.7-3.1 1.4 1.4 2.6 2.4 3.8 3.1a8 8 0 003.8 1.1c1.6 0 3-.5 4.3-1.5 1.1-1 2-2.4 2.1-4 .3-1 .2-2.2-.2-3.2zM14 22.8c-1.6-2-2.7-4-3-5.6-.2-.6-.2-1.2-.1-1.8 0-.5.2-.9.5-1.3.6-.8 1.5-1.3 2.6-1.3a3.2 3.2 0 012.7 1.3l.5 1.3-.1 1.8c-.4 1.6-1.4 3.5-3 5.6zm12.1 1.4a4.4 4.4 0 01-2.7 3.5c-.7.3-1.5.4-2.3.3a6 6 0 01-2.3-.8c-1.3-.8-2.5-1.7-3.5-2.9a17 17 0 003.7-6.6c.2-1 .2-1.8.2-2.6-.2-.7-.4-1.4-.9-2a5 5 0 00-4.2-2.2c-1.8 0-3.4.8-4.3 2.2-.4.6-.7 1.3-.8 2a6 6 0 00.1 2.6c.5 2 1.7 4.2 3.7 6.6-1 1.2-2.1 2.2-3.5 3a6 6 0 01-2.3.7c-1.1.2-2.3-.1-3.3-.8-1-.7-1.5-1.8-1.7-3-.1-.7 0-1.5.3-2.3 0-.3.2-.6.4-1l.6-1.5c2.1-4.5 4.4-9 6.7-13.5l.1-.2.7-1.4c.3-.5.5-1 .9-1.3a3.2 3.2 0 012.4-1.1 3.2 3.2 0 012.4 1l.9 1.4.7 1.4v.2c2.4 4.4 4.7 9 6.7 13.5l.8 1.5.4 1c.1.8.2 1.6.1 2.3zm13.3-1.6a4.8 4.8 0 01-3.8-1.7 6 6 0 01-1.5-4.2c0-1.6.5-3.1 1.6-4.3a5 5 0 013.9-1.7 4.1 4.1 0 013.5 1.8V11H46v11.3h-2.7l-.1-1.6a4.3 4.3 0 01-3.7 2zm.7-2.7c.6 0 1-.1 1.5-.4.4-.3.8-.7 1-1.2.3-.5.4-1 .4-1.7a3.2 3.2 0 00-1.4-2.8 2.8 2.8 0 00-3 0c-.4.3-.7.7-1 1.2-.3.5-.4 1-.4 1.6a3.2 3.2 0 001.4 2.9c.5.3 1 .4 1.5.4zM50.8 8c0 .4 0 .7-.2.9l-.6.6c-.3.2-.6.2-1 .2-.2 0-.5 0-.8-.2-.3-.1-.5-.3-.6-.6l-.3-.9c0-.3.1-.6.3-.8.1-.3.3-.5.6-.6l.9-.3a1.8 1.8 0 011.5.8l.2 1zm-3.2 14.4V11h3v11.3h-3zm11-8.4h-.9c-.9 0-1.5.2-2 .7-.4.5-.6 1.2-.6 2.1v5.6h-3V11h2.8v1.7c.4-.6.7-1 1.2-1.4a3 3 0 011.8-.5h.6l.2.1v3zm1.3 8.4v-16h3v6.1c.4-.5 1-1 1.5-1.3a4.8 4.8 0 015.8 1.2 6 6 0 011.5 4.3c0 1.5-.5 3-1.6 4.2a5 5 0 01-3.8 1.8 4.1 4.1 0 01-3.5-1.8l-.1 1.5h-2.8zm5.8-2.4c.6 0 1-.1 1.5-.4.4-.3.8-.7 1-1.2.3-.5.4-1 .4-1.7 0-.6-.1-1.2-.4-1.6-.2-.5-.6-1-1-1.2a2.8 2.8 0 00-3 0c-.4.3-.7.7-1 1.2-.2.5-.4 1-.4 1.6a3.2 3.2 0 001.4 2.9c.5.3 1 .4 1.5.4zm7.2 2.4V11h2.8v1.4a3.7 3.7 0 013.4-1.7 4 4 0 013.6 2.2c.4.8.6 1.6.6 2.6v6.8h-3V16a3 3 0 00-.6-1.8c-.4-.5-.9-.7-1.5-.7-.5 0-.9 0-1.2.3-.3.2-.6.4-.8.8-.2.4-.3.9-.3 1.3v6.5h-3zm11.9 0v-16h3v6.1a4.4 4.4 0 013.5-1.8 4.8 4.8 0 013.8 1.7c1 1.2 1.6 2.7 1.5 4.2 0 1.6-.5 3.1-1.6 4.3a5 5 0 01-3.8 1.8 4.1 4.1 0 01-3.6-1.8v1.5h-2.8zm5.8-2.4c.6 0 1-.1 1.5-.4.5-.3.8-.7 1-1.2.3-.5.4-1 .4-1.7a3.2 3.2 0 00-1.4-2.8 2.8 2.8 0 00-3 0 3.4 3.4 0 00-1.4 2.9 3.2 3.2 0 001.5 2.8c.4.3.9.4 1.4.4z" fill="#FF385C"/></g><defs><clipPath id="clip0"><path fill="#fff" d="M0 0h96.9v30H0z"/></clipPath></defs></svg>