<svg width="97" height="30" fill="none" xmlns="http://www.w3.org/2000/svg"><g clip-path="url(#clip0)" fill-rule="evenodd" clip-rule="evenodd"><path d="M60.1 23.5A37.1 37.1 0 0113.8 20c-.5-.6 0-1.2.6-.8a50.2 50.2 0 0045 2.8c.9-.4 1.7.7.7 1.4z" fill="#F90"/><path d="M62.5 20.7c-.7-1-4.8-.4-6.6-.2-.5 0-.6-.4-.1-.8 3.2-2.3 8.5-1.7 9-.9.7.8 0 6.3-3.1 8.8-.5.4-1 .2-.7-.3.7-1.7 2.2-5.6 1.5-6.6z" fill="#F90"/><path d="M56 3.3V1c0-.3.3-.6.6-.6h9.9c.3 0 .5.3.5.6v2c0 .3-.2.7-.7 1.4l-5.1 7.5c1.9 0 3.9.2 5.6 1.2.4.2.5.6.5.9v2.4c0 .3-.3.7-.7.5-3-1.6-7-1.8-10.4 0-.4.2-.7-.2-.7-.5v-2.3c0-.4 0-1 .3-1.5l6-8.8h-5.2a.6.6 0 01-.6-.5zM20 17.4h-3a.6.6 0 01-.5-.5V1c0-.4.3-.6.6-.6h2.8c.3 0 .5.2.5.5v2h.1c.7-2 2.1-2.8 4-2.8 1.8 0 3 .9 3.8 2.9.8-2 2.4-3 4.2-3C33.7.2 35 .8 36 2c1 1.3.7 3.2.7 5v10c0 .2-.2.5-.6.5h-3a.6.6 0 01-.5-.6V8.4v-3c-.3-1-1-1.3-1.9-1.3A2 2 0 0029 5.4c-.4.8-.3 2.1-.3 3v8.4c0 .3-.3.6-.6.6h-3a.6.6 0 01-.5-.6V8.4c0-1.7.2-4.3-1.9-4.3s-2 2.5-2 4.3v8.4c0 .3-.3.6-.6.6M75.5.2C80 .2 82.4 4 82.4 9c0 4.8-2.7 8.6-6.9 8.6-4.4 0-6.7-4-6.7-8.8 0-5 2.4-8.7 6.7-8.7zm0 3.2c-2.2 0-2.3 3-2.3 5s0 6 2.3 6S78 11.2 78 9.2c0-1.3 0-3-.4-4.2-.3-1-1-1.5-2-1.5zM88.1 17.4h-3a.6.6 0 01-.5-.6V1c0-.3.3-.5.6-.5H88c.2 0 .5.2.5.4v2.4c.9-2.1 2-3.1 4.2-3.1A4 4 0 0196.2 2c.7 1.3.7 3.4.7 5v9.9c0 .3-.2.5-.5.5h-3a.6.6 0 01-.6-.5V8.3C92.8 6.6 93 4 91 4c-.7 0-1.4.5-1.7 1.3-.4 1-.5 2-.5 3v8.5c0 .3-.2.6-.6.6M48.2 9.8c0 1.2 0 2.2-.6 3.3-.5.9-1.2 1.4-2 1.4-1.2 0-1.9-.9-1.9-2.2 0-2.7 2.3-3.1 4.5-3.1v.6zm3 7.5c-.2.2-.5.2-.7.1-1-.8-1.2-1.2-1.7-2-1.7 1.7-2.8 2.2-5 2.2-2.5 0-4.5-1.6-4.5-4.8 0-2.5 1.3-4.2 3.2-5 1.7-.8 4-.9 5.7-1.1v-.4c0-.7 0-1.6-.4-2.2-.4-.6-1-.8-1.7-.8-1.1 0-2.1.6-2.4 1.8 0 .3-.2.6-.5.6l-3-.3c-.2-.1-.4-.3-.4-.7.7-3.6 3.9-4.7 6.7-4.7 1.5 0 3.4.4 4.6 1.5 1.4 1.4 1.3 3.3 1.3 5.3v4.8c0 1.5.6 2.1 1.1 2.9.2.3.2.6 0 .8l-2.3 2M8.8 9.8c0 1.2 0 2.2-.5 3.3-.5.9-1.3 1.4-2.1 1.4-1.1 0-1.8-.9-1.8-2.2 0-2.7 2.3-3.1 4.4-3.1v.6zm3 7.5c-.1.2-.4.2-.6.1-1-.8-1.2-1.2-1.8-2-1.6 1.7-2.8 2.2-5 2.2C2 17.6 0 16 0 12.8c0-2.5 1.3-4.2 3.2-5 1.6-.8 3.9-.9 5.6-1.1v-.4c0-.7.1-1.6-.3-2.2-.4-.6-1-.8-1.7-.8-1.1 0-2.2.6-2.4 1.8 0 .3-.3.6-.5.6l-3-.3C.7 5.3.4 5 .5 4.7 1.2 1.1 4.4 0 7.2 0c1.5 0 3.4.4 4.5 1.5 1.5 1.4 1.4 3.3 1.4 5.3v4.8c0 1.5.5 2.1 1 2.9.3.3.3.6 0 .8l-2.2 2" fill="#000"/></g><defs><clipPath id="clip0"><path fill="#fff" d="M0 0h96.9v30H0z"/></clipPath></defs></svg>