<svg width="135" height="40" fill="none" xmlns="http://www.w3.org/2000/svg"><g clip-path="url(#clip0)"><path d="M124.2 0H8.5C7.7 0 7 0 6.2.2L4.1.8A7.3 7.3 0 00.9 3.6a6 6 0 00-.7 2l-.2 2v24.9c0 .7 0 1.3.2 2a6 6 0 002 3.5 8.2 8.2 0 004 1.8 17 17 0 003.3.2h116a53 53 0 003.3-.2l2.1-.6a7.1 7.1 0 003.2-2.8 6 6 0 00.7-2l.2-2v-.8V9.5v-1-1l-.2-2c-.1-.6-.4-1.3-.7-1.9a7 7 0 00-3.2-2.8l-2.1-.6-2.3-.2h-2.3z" fill="#A6A6A6"/><path d="M9.4 39.1a51 51 0 01-3.1-.1c-.7-.1-1.3-.3-1.9-.6A6.1 6.1 0 011.7 36c-.3-.5-.5-1-.6-1.7a11 11 0 01-.2-1.8v-24A91.2 91.2 0 011 5.6a5.3 5.3 0 011.7-3A6.3 6.3 0 016.3 1 16 16 0 018.4 1h118.2l2.1.1c.7.1 1.3.3 1.9.6a6 6 0 012.7 2.4c.3.5.5 1 .6 1.7a11.5 11.5 0 01.2 2.7v24.1c0 .6 0 1.2-.2 1.8a5.3 5.3 0 01-1.7 3c-.5.5-1 .8-1.6 1.1-.6.3-1.2.5-1.9.6a16 16 0 01-3.1.1H9.4z" fill="#000"/><path d="M32.8 20.3a5 5 0 012.4-4.2 5 5 0 00-4-2.1c-1.7-.2-3.3 1-4.2 1-.9 0-2.2-1-3.6-1a5.3 5.3 0 00-4.5 2.8c-2 3.3-.5 8.2 1.4 11 1 1.3 2 2.7 3.4 2.7s2-.9 3.6-.9 2.1.9 3.6.9 2.4-1.4 3.3-2.7c.7-1 1.2-2 1.5-3.1a4.8 4.8 0 01-2.9-4.4zM30 12.2c.9-1 1.3-2.2 1.2-3.5A5 5 0 0027 12l-.3 1.8a4.1 4.1 0 003.3-1.5zM50.3 27.1h-4.7l-1.1 3.4h-2l4.4-12.4H49l4.5 12.4h-2l-1.2-3.4zm-4.2-1.5h3.7L48 20l-2 5.5zM63.2 26c0 2.8-1.5 4.6-3.8 4.6a3 3 0 01-2.8-1.6v4.5h-2v-12h1.9v1.4a3.2 3.2 0 012.9-1.6c2.3 0 3.8 1.9 3.8 4.7zm-2 0c0-1.9-.9-3-2.3-3s-2.4 1.2-2.4 3 1 3 2.4 3 2.4-1.2 2.4-3zM73.2 26c0 2.8-1.6 4.6-3.8 4.6a3 3 0 01-2.9-1.6v4.5h-1.9v-12h1.8v1.4a3.2 3.2 0 013-1.6c2.2 0 3.8 1.9 3.8 4.7zm-2 0c0-1.9-.9-3-2.3-3-1.5 0-2.4 1.2-2.4 3s1 3 2.4 3 2.3-1.2 2.3-3zM79.7 27c.2 1.3 1.4 2 3 2s2.7-.7 2.7-1.8c0-1-.7-1.6-2.3-2l-1.6-.4c-2.3-.5-3.3-1.6-3.3-3.3 0-2.2 1.8-3.6 4.5-3.6 2.6 0 4.4 1.4 4.5 3.6h-2c0-1.3-1-2-2.5-2s-2.6.8-2.6 1.9c0 .8.7 1.4 2.3 1.7l1.4.4c2.5.6 3.6 1.6 3.6 3.4 0 2.3-1.9 3.8-4.8 3.8-2.8 0-4.6-1.4-4.8-3.7h2zM91.4 19.3v2.1H93V23h-1.7v5c0 .8.3 1.1 1 1.1h.7v1.5h-1c-1.9 0-2.6-.6-2.6-2.4v-5.2h-1.3v-1.5h1.3v-2.1h1.9zM94 26c0-2.9 1.8-4.7 4.4-4.7 2.6 0 4.3 1.8 4.3 4.7 0 2.8-1.7 4.6-4.3 4.6-2.6 0-4.3-1.8-4.3-4.6zm6.8 0c0-2-1-3.1-2.4-3.1-1.5 0-2.4 1.1-2.4 3 0 2 .9 3.2 2.4 3.2s2.4-1.2 2.4-3.1zM104.2 21.4h1.8V23a2.2 2.2 0 012.2-1.7l.6.1v1.8l-.8-.2a1.9 1.9 0 00-2 2.1v5.4h-1.8v-9zM117.4 27.8c-.2 1.7-1.8 2.8-3.9 2.8-2.6 0-4.3-1.8-4.3-4.6s1.7-4.7 4.2-4.7 4.1 1.8 4.1 4.5v.6h-6.4v.1a2.4 2.4 0 002.5 2.6 2 2 0 002-1.3h1.8zm-6.3-2.7h4.6a2.2 2.2 0 00-2.3-2.3 2.3 2.3 0 00-2.3 2.3zM45.9 8.7a2.6 2.6 0 012.8 3c0 1.9-1 3-2.8 3h-2.2v-6h2.2zM44.6 14h1.2a1.9 1.9 0 002-2.2 1.9 1.9 0 00-2-2.1h-1.2v4.3zM49.7 12.4a2.1 2.1 0 114.3 0 2.1 2.1 0 11-4.3 0zm3.3 0c0-1-.4-1.5-1.2-1.5-.7 0-1.2.6-1.2 1.5 0 1 .5 1.6 1.2 1.6.8 0 1.2-.6 1.2-1.6zM59.6 14.7h-1l-.9-3.3-1 3.3h-.9l-1.2-4.5h.9l.8 3.4 1-3.4h.9l.9 3.4.8-3.4h1l-1.3 4.5zM61.9 10.2h.8v.7h.1a1.3 1.3 0 011.3-.8 1.5 1.5 0 011.6 1.7v2.9h-.9V12c0-.7-.3-1-1-1a1 1 0 00-1 1v2.7h-1v-4.5zM67.1 8.4h1v6.3h-1V8.4zM69.2 12.4a2.1 2.1 0 114.3 0 2.1 2.1 0 11-4.3 0zm3.4 0c0-1-.5-1.5-1.2-1.5-.8 0-1.2.6-1.2 1.5 0 1 .4 1.6 1.2 1.6.7 0 1.2-.6 1.2-1.6zM74.4 13.4c0-.8.6-1.3 1.7-1.3h1.2v-.5c0-.5-.3-.7-.9-.7-.5 0-.8.2-1 .5h-.8c0-.8.8-1.3 1.8-1.3 1.2 0 1.8.6 1.8 1.5v3.1h-.8v-.6h-.1a1.5 1.5 0 01-1.4.7 1.4 1.4 0 01-1.5-1.4zm3-.4v-.3h-1.2c-.6 0-.9.3-.9.7 0 .4.4.6.9.6a1 1 0 001.1-1zM79.4 12.4c0-1.4.7-2.3 1.8-2.3a1.5 1.5 0 011.4.8V8.4h1v6.3h-.9V14a1.6 1.6 0 01-1.5.8c-1.1 0-1.8-1-1.8-2.4zm.9 0c0 1 .4 1.6 1.2 1.6.7 0 1.2-.6 1.2-1.6 0-.9-.5-1.5-1.2-1.5-.8 0-1.2.6-1.2 1.5zM87.3 12.4a2.1 2.1 0 114.2 0 2.1 2.1 0 11-4.2 0zm3.3 0c0-1-.4-1.5-1.2-1.5-.8 0-1.2.6-1.2 1.5 0 1 .4 1.6 1.2 1.6.8 0 1.2-.6 1.2-1.6zM92.7 10.2h.9v.7a1.3 1.3 0 011.4-.8 1.5 1.5 0 011.5 1.7v2.9h-.9V12c0-.7-.3-1-1-1a1 1 0 00-1 1v2.7h-.9v-4.5zM101.5 9v1.2h1v.8h-1v2.3c0 .5.2.7.7.7h.3v.7h-.5c-1 0-1.3-.3-1.3-1.2V11h-.8v-.8h.8V9.1h.8zM103.7 8.4h1V11a1.4 1.4 0 011.4-.8 1.5 1.5 0 011.5 1.7v2.9h-.9V12c0-.7-.3-1-1-1a1 1 0 00-1 1v2.7h-1V8.4zM112.8 13.5a1.8 1.8 0 01-2 1.3 2 2 0 01-2-2.3 2 2 0 012-2.4c1.3 0 2 .9 2 2.3v.3h-3.1a1.2 1.2 0 001.2 1.3 1 1 0 001-.5h.9zm-3.1-1.5h2.2a1 1 0 00-1-1.1 1.2 1.2 0 00-1.2 1.1z" fill="#fff"/></g><defs><clipPath id="clip0"><path fill="#fff" d="M0 0h135v40H0z"/></clipPath></defs></svg>