<svg width="96" height="30" fill="none" xmlns="http://www.w3.org/2000/svg"><g clip-path="url(#clip0)"><path d="M71 28.2l7.8-8.6-7.9-8.7h8.3l3.9 4.2 3.7-4.2h8L87 19.5l8 8.7h-8.4L82.8 24 79 28.2h-8z" fill="#F60"/><path d="M71 7h-9V11h9v5.9h-9V22h9v6.1H55.4V1H71V7z" fill="#F60"/><path d="M49 1V12a6.7 6.7 0 00-5.4-2.2 9 9 0 00-8.6 6.6c-1.3-4.1-4.6-6.7-9.6-6.7-4 0-7.1 1.8-8.8 4.7v-3.6H8.3V7h9V1H1v27.2h7.4V16.8h7.4c-.2.8-.4 1.7-.4 2.6 0 5.7 4.5 9.7 10.1 9.7 4.8 0 8-2.2 9.6-6.2h-6.4c-.8 1.2-1.5 1.6-3.2 1.6-2 0-3.7-1.7-3.7-3.7h13a9.3 9.3 0 009 8.4c2.1 0 4-1 5.2-2.7h.1v1.7h6.5V1H49zM22 16.7a3.5 3.5 0 013.4-2.8c1.9 0 3.2 1 3.5 2.8h-7zm23 7.3c-2.3 0-3.8-2.2-3.8-4.5 0-2.5 1.3-4.8 3.9-4.8 2.6 0 3.7 2.3 3.7 4.8 0 2.3-1.1 4.5-3.7 4.5z" fill="#652C8F"/></g><defs><clipPath id="clip0"><path fill="#fff" transform="translate(1 1)" d="M0 0h94.1v28.1H0z"/></clipPath></defs></svg>