<svg width="135" height="40" fill="none" xmlns="http://www.w3.org/2000/svg"><path d="M130 0H5a5 5 0 00-5 5v30a5 5 0 005 5h125a5 5 0 005-5V5a5 5 0 00-5-5z" fill="#000"/><path d="M130 .8a4.2 4.2 0 014.2 4.2v30a4.2 4.2 0 01-4.2 4.2H5A4.2 4.2 0 01.8 35V5A4.2 4.2 0 015 .8h125zm0-.8H5a5 5 0 00-5 5v30a5 5 0 005 5h125a5 5 0 005-5V5a5 5 0 00-5-5z" fill="#A6A6A6"/><path d="M47.4 10.2a2.7 2.7 0 01-1.7 2.7 3 3 0 01-1.2.2 3 3 0 01-3.1-3.1 3 3 0 014.3-2.9l1 .7-.6.5a2 2 0 00-1.6-.7A2.3 2.3 0 0042 10a2.4 2.4 0 004 1.7c.4-.3.5-.7.5-1.2h-2.1v-.7h2.9v.4zM52 7.7h-2.7v2h2.5v.7h-2.5v1.9H52v.7h-3.5V7H52v.7zM55.3 13h-.8V7.7h-1.7V7H57v.7h-1.7V13zM60 13V7h.7v6H60zM64.1 13h-.7V7.7h-1.7V7h4.1v.7h-1.7V13zM73.6 12.2a3.1 3.1 0 01-5-1 3 3 0 01-.3-1.2 3 3 0 014.3-2.9 3.1 3.1 0 011.7 1.7l.2 1.2a3 3 0 01-.9 2.2zm-3.8-.5a2.3 2.3 0 004-1.7 2.3 2.3 0 00-.8-1.7 2.3 2.3 0 00-3.9 1.7 2.3 2.3 0 00.7 1.7zM75.6 13V7h1l2.8 4.7h0V7h.8v6h-.8l-3-4.9h0V13h-.8z" fill="#fff" stroke="#fff" stroke-width=".2" stroke-miterlimit="10"/><path d="M68.1 21.8a4.3 4.3 0 104 2.6 4.2 4.2 0 00-4-2.6zm0 6.8a2.6 2.6 0 112.4-2.6 2.5 2.5 0 01-2.4 2.6zm-9.3-6.8a4.3 4.3 0 104 2.6 4.2 4.2 0 00-4-2.6zm0 6.8a2.6 2.6 0 112.4-2.6 2.5 2.5 0 01-2.4 2.6zm-11-5.5v1.8H52a3.8 3.8 0 01-2.5 3.2c-.6.3-1.2.4-1.9.4a4.8 4.8 0 010-9.6c1.3 0 2.4.4 3.3 1.2l1.3-1.2a6.3 6.3 0 00-4.6-1.9 6.6 6.6 0 100 13.3 6 6 0 004.7-1.9 6 6 0 001.5-4.2V23h-6.2zM93 24.5a4 4 0 00-3.7-2.7 4 4 0 00-4 4.2 4.2 4.2 0 004.2 4.3 4.2 4.2 0 003.6-2l-1.5-.9a2.4 2.4 0 01-2 1.2 2.2 2.2 0 01-2.1-1.3l5.6-2.4-.1-.4zm-5.8 1.4a2.3 2.3 0 012.2-2.5 1.6 1.6 0 011.6.9l-3.8 1.6zM82.6 30h1.9V17.5h-1.9V30zm-3-7.3h-.1a3 3 0 00-2.2-1 4.3 4.3 0 000 8.6 2.9 2.9 0 002.2-1v.6c0 1.6-.8 2.5-2.2 2.5a2.4 2.4 0 01-2.1-1.5l-1.7.7a4 4 0 003.8 2.5c2.2 0 4-1.3 4-4.5V22h-1.7v.7zm-2.2 5.9a2.6 2.6 0 010-5.2 2.4 2.4 0 012.3 2.6 2.4 2.4 0 01-2.3 2.6zm24.4-11.1h-4.5V30h1.9v-4.7h2.6a3.9 3.9 0 100-7.8zm0 6h-2.6v-4.3h2.7a2.1 2.1 0 110 4.3zm11.6-1.8a3.5 3.5 0 00-3.3 2l1.6.6a1.8 1.8 0 011.7-.9 1.8 1.8 0 012 1.6v.2c-.6-.4-1.3-.5-2-.5-1.8 0-3.6 1-3.6 2.8a2.9 2.9 0 003.1 2.7 2.6 2.6 0 002.4-1.2v1h1.9v-4.8c0-2.2-1.7-3.5-3.8-3.5zm-.2 6.9c-.7 0-1.5-.3-1.5-1 0-1 1-1.4 2-1.4.6 0 1.2.1 1.7.4a2.3 2.3 0 01-2.2 2zm10.5-6.6l-2.1 5.4-2.3-5.4h-2l3.3 7.6-1.9 4.2h2l5.1-11.8h-2zM107 30h1.9V17.5h-1.9V30z" fill="#fff"/><path d="M10.4 7.5A2 2 0 0010 9v22.2c0 .5.1 1 .4 1.4h.1L23 20.1V20L10.5 7.5z" fill="url(#paint0_linear)"/><path d="M27 24.3L23 20V20l4.1-4.2h.1l5 2.9c1.3.8 1.3 2 0 2.8l-5 2.8z" fill="url(#paint1_linear)"/><path d="M27.1 24.2L23 20 10.4 32.5a1.6 1.6 0 002.1 0l14.6-8.3z" fill="url(#paint2_linear)"/><path d="M27.1 15.8L12.5 7.5a1.6 1.6 0 00-2 0L22.8 20l4.2-4.2z" fill="url(#paint3_linear)"/><path opacity=".2" d="M27 24.1l-14.5 8.3a1.7 1.7 0 01-2 0v.1a1.7 1.7 0 002 0l14.6-8.3z" fill="#000"/><path opacity=".1" d="M10.4 32.3A2 2 0 0110 31v.2c0 .5.1 1 .4 1.4l.1-.1zM32 21.3l-5 2.8.1.1 5-2.8a1.8 1.8 0 001-1.4 1.9 1.9 0 01-1 1.3z" fill="#000"/><path opacity=".3" d="M12.5 7.6L32 18.7a1.9 1.9 0 011 1.3 1.8 1.8 0 00-1-1.4L12.5 7.5c-1.4-.8-2.5-.2-2.5 1.4v.2c0-1.6 1.1-2.3 2.5-1.5z" fill="#fff"/><defs><linearGradient id="paint0_linear" x1="21.8" y1="8.7" x2="5" y2="25.5" gradientUnits="userSpaceOnUse"><stop stop-color="#00A0FF"/><stop offset="0" stop-color="#00A1FF"/><stop offset=".3" stop-color="#00BEFF"/><stop offset=".5" stop-color="#00D2FF"/><stop offset=".8" stop-color="#00DFFF"/><stop offset="1" stop-color="#00E3FF"/></linearGradient><linearGradient id="paint1_linear" x1="33.8" y1="20" x2="9.6" y2="20" gradientUnits="userSpaceOnUse"><stop stop-color="#FFE000"/><stop offset=".4" stop-color="#FFBD00"/><stop offset=".8" stop-color="orange"/><stop offset="1" stop-color="#FF9C00"/></linearGradient><linearGradient id="paint2_linear" x1="24.8" y1="22.3" x2="2.1" y2="45.1" gradientUnits="userSpaceOnUse"><stop stop-color="#FF3A44"/><stop offset="1" stop-color="#C31162"/></linearGradient><linearGradient id="paint3_linear" x1="7.3" y1=".2" x2="17.5" y2="10.3" gradientUnits="userSpaceOnUse"><stop stop-color="#32A071"/><stop offset=".1" stop-color="#2DA771"/><stop offset=".5" stop-color="#15CF74"/><stop offset=".8" stop-color="#06E775"/><stop offset="1" stop-color="#00F076"/></linearGradient></defs></svg>