<svg width="91" height="30" fill="none" xmlns="http://www.w3.org/2000/svg"><g clip-path="url(#clip0)"><path d="M38.8 15.4c0 4.1-3.3 7.2-7.3 7.2s-7.3-3-7.3-7.2 3.3-7.2 7.3-7.2 7.3 3 7.3 7.2zm-3.2 0c0-2.6-1.9-4.4-4.1-4.4-2.2 0-4.1 1.8-4.1 4.4 0 2.6 1.9 4.4 4.1 4.4 2.2 0 4.1-1.8 4.1-4.4z" fill="#EA4335"/><path d="M54.6 15.4c0 4.1-3.3 7.2-7.3 7.2s-7.3-3-7.3-7.2 3.2-7.2 7.3-7.2c4 0 7.3 3 7.3 7.2zm-3.2 0c0-2.6-2-4.4-4.1-4.4-2.2 0-4.1 1.8-4.1 4.4 0 2.6 1.9 4.4 4 4.4 2.3 0 4.2-1.8 4.2-4.4z" fill="#FBBC05"/><path d="M69.7 8.6v13c0 5.3-3.2 7.5-7 7.5a7 7 0 01-6.4-4.3l2.8-1.1a4 4 0 003.7 2.6c2.4 0 3.9-1.5 3.9-4.3v-1h-.1a5 5 0 01-3.9 1.6c-3.6 0-7-3.1-7-7.2 0-4 3.4-7.2 7-7.2a5 5 0 013.9 1.6V8.6h3.1zM67 15.4c0-2.5-1.7-4.4-3.9-4.4s-4 1.9-4 4.4c0 2.5 1.8 4.4 4 4.4s3.9-1.9 3.9-4.4z" fill="#4285F4"/><path d="M74.7 1v21.2h-3.1V1h3.1z" fill="#34A853"/><path d="M86.9 17.8l2.5 1.6a7.3 7.3 0 01-6 3.2 7.1 7.1 0 01-7.3-7.2C76 11 79 8 82.9 8s5.7 3 6.3 4.7l.3.8-9.7 4c.7 1.4 1.9 2.2 3.5 2.2s2.8-.8 3.6-2zm-7.7-2.6l6.6-2.7c-.4-1-1.5-1.6-2.7-1.6a4 4 0 00-3.9 4.3z" fill="#EA4335"/><path d="M12.4 13.5v-3h10.4l.1 1.8a10 10 0 01-2.6 7.2c-2 2-4.6 3.1-8 3.1-6.2 0-11.4-5-11.4-11.2A11.4 11.4 0 0120 3.2L18 5.4a8 8 0 00-5.5-2.2 8 8 0 00-8.2 8.2 8 8 0 008.2 8.1c3 0 4.6-1.1 5.7-2.2.9-.9 1.4-2.1 1.7-3.8h-7.4z" fill="#4285F4"/></g><defs><clipPath id="clip0"><path fill="#fff" transform="translate(.8)" d="M0 0h89.4v30H0z"/></clipPath></defs></svg>