<svg width="105" height="28" fill="none" xmlns="http://www.w3.org/2000/svg"><path d="M.6 28H10c4.5 0 8.1-3.6 8.1-8.2H8.7A8.2 8.2 0 00.6 28z" fill="#F22BB2"/><path d="M1 8.2v12c4.5 0 8.2-3.7 8.2-8.2V0A8.2 8.2 0 001 8.2z" fill="#8C30F5"/><path d="M27.4 0H18a8.2 8.2 0 00-8.1 8.2h9.5c4.5 0 8.1-3.7 8.1-8.2z" fill="#FE9A22"/><path d="M27.4 19.4v-12a8.2 8.2 0 00-8.1 8.1v12c4.5 0 8.1-3.6 8.1-8.1z" fill="#2EC5CE"/><path d="M40.4 18V7h-3.2v14h8.2v-3h-5zM53.9 11v1a3.8 3.8 0 00-3-1.3C48.3 10.7 46 13 46 16s2.2 5.3 4.8 5.3c1.3 0 2.3-.5 3-1.2v.9h3V11h-3zm-2.4 7.4c-1.4 0-2.4-.9-2.4-2.4s1-2.4 2.4-2.4 2.4.9 2.4 2.4-1 2.4-2.4 2.4zM65 10.7c-1.4 0-2.4.5-3 1.2V11h-3v10h3v-5.5c0-1.4.8-2 2-2 .9 0 1.7.6 1.7 1.8V21h3v-6.1c0-2.7-1.7-4.2-3.8-4.2zM78 7v5a3.8 3.8 0 00-3-1.3c-2.6 0-4.8 2.3-4.8 5.3s2.2 5.3 4.8 5.3c1.4 0 2.3-.5 3-1.2v.9h3V7h-3zm-2.4 11.4c-1.4 0-2.4-.9-2.4-2.4s1-2.4 2.4-2.4 2.4.9 2.4 2.4-1 2.4-2.4 2.4zM84.7 10.1c1 0 1.8-.8 1.8-1.8s-.8-1.8-1.8-1.8-1.8.8-1.8 1.8.8 1.8 1.8 1.8zM83.2 21h3V11h-3v10zM93.9 9.6V6.7C90.6 6.5 89 8.2 89 11h-1.3v2.9H89V21h3v-7.1H94V11H92c0-1.2.8-1.5 1.9-1.4zM101.7 11l-1.9 6.1-2.2-6.1h-3.3l4 9.5c-.5 1.3-1.1 1.7-2.5 1.7V25c2.8.1 4.5-1.1 5.7-4.3l3.4-9.7h-3.2z" fill="#0B0D17"/></svg>