<svg width="80" height="30" fill="none" xmlns="http://www.w3.org/2000/svg"><g clip-path="url(#clip0)"><path d="M65.5 28.7C73 28.7 79 22.5 79 15 79 7.3 73 1.2 65.5 1.2S51.9 7.3 51.9 14.9s6 13.8 13.6 13.8zm0-18.7c2.6 0 4.8 2.2 4.8 5 0 2.6-2.2 4.8-4.8 4.8a4.9 4.9 0 01-4.9-4.9c0-2.7 2.2-4.9 4.9-4.9zM14 28.7c7.5 0 13.6-6.2 13.6-13.8 0-7.6-6.1-13.7-13.6-13.7S.5 7.3.5 14.9s6 13.8 13.6 13.8zM14 10c2.7 0 4.8 2.2 4.8 5 0 2.6-2.1 4.8-4.8 4.8A4.9 4.9 0 019.2 15c0-2.7 2.2-4.9 4.9-4.9zm25.7-.3l-4.2-8.4h-9.8l9.1 18.4v8.6h9.7v-8.6l9.1-18.4H44l-4.2 8.4z" fill="#EE2E24"/></g><defs><clipPath id="clip0"><path fill="#fff" transform="translate(.5)" d="M0 0h79.1v30H0z"/></clipPath></defs></svg>