<svg width="248" height="297" fill="none" xmlns="http://www.w3.org/2000/svg"><rect opacity=".5" x="48.1" y="3" width="200" height="260" rx="12" transform="rotate(10 48 3)" fill="#18191F" stroke="#fff" stroke-width="4" stroke-linecap="round" stroke-dasharray="8 12"/><path d="M64 92l-1 2a221 221 0 00-3 7h-1v-1a60 60 0 012-7 155 155 0 01-3-12v-1h1l1 1a39 39 0 001 4 83 83 0 001 4 77 77 0 008-8l2-1h1v1l-1 1a59 59 0 01-4 5 265 265 0 01-4 5zM83 90l2 2 1 2v2l-1 2a13 13 0 01-3 4l-2 1a6 6 0 01-5-1l-2-2v-3a12 12 0 011-5l2-2 1-1h4l1 1h1zm-2 3l-1-1-1-1h-1l-1 1a9 9 0 00-1 2 10 10 0 000 3v2l1 1h3l2-1 1-2v-2l-1-2h-1zM93 94a63 63 0 00-2 7v1h2l2-2a17 17 0 003-4l1-1v-1h2v1h1a62 62 0 00-1 11v1l-1 1h-1v-1a15 15 0 010-3 91 91 0 000-3 19 19 0 01-4 3l-2 1h-3l-1-3v-3a29 29 0 012-7h1l1 1v1zM118 96a418 418 0 01-7 4l-1 3-1 3-1 2h-1l-1-1v-1a74 74 0 010-12h2l1 1a84 84 0 00-1 6l2-3a11 11 0 014-3h5v1h-1zM136 114h-1l-1 1-1-1v-1a80 80 0 002-15h2a4 4 0 010 2 70 70 0 010 4l2-1a9 9 0 003-2l1-2-1-1-1-2h-5l-4 1h-1l-1-1 1-2 2-1a13 13 0 017 0l3 2 2 2v4l-2 3-3 2-3 1a76 76 0 01-1 7zM151 98l-1 2v3a86 86 0 01-1 5 11 11 0 013-3h3l2 1 1 2 1 2v3a23 23 0 010 4l-1 1-1 1-1-1v-1-1a89 89 0 000-7l-1-1-1-1-2 1-1 3a31 31 0 00-3 5v1h-1-1v-1a14 14 0 010-2 134 134 0 012-16l2-2 1 1v1zM173 106l2 2v2l1 2-1 2a13 13 0 01-3 4l-3 1a6 6 0 01-5-1l-1-3v-3a12 12 0 011-5l1-1 2-1 2-1 1 1 2 1h1zm-2 3l-1-1-1-1h-1l-1 1a9 9 0 00-1 2 10 10 0 00-1 3l1 2 1 1h3l1-1 2-2v-2l-1-2h-1zM188 112h2v2l-1 1h-1a40 40 0 00-3-1 322 322 0 01-2 7l2-1a46 46 0 006-1h1v1l-1 1a19 19 0 01-4 2h-4l-2-1v-2a35 35 0 011-6 326 326 0 00-5-2h1l1-1h3a138 138 0 013-7h1l1 1a134 134 0 00-2 7h3zM205 112l2 1v2l1 3-1 2a13 13 0 01-3 3l-3 1a6 6 0 01-5-1l-1-2v-3a12 12 0 011-5l1-2 2-1h2l1 1h2l1 1zm-2 2l-1-1h-1-1l-1 1a9 9 0 00-1 2 10 10 0 00-1 3l1 1a3 3 0 002 2l2-1 1-1 2-1v-3l-1-2h-1zM103 122v5a83 83 0 01-1 5 11 11 0 012-2l2-1h2l1 1 2 2v5a23 23 0 010 5v1h-1l-1-1v-1-1a83 83 0 00-1-6v-2l-1-1-2 2-2 2a31 31 0 00-2 5l-1 1h-1v-1a14 14 0 01-1-2 133 133 0 013-16c0-2 1-2 2-2v2zM125 135h-7v3l2 1h1a6 6 0 002-1h3v1l-2 2-3 1-3-1-2-2-1-2v-3l1-2 1-2a6 6 0 015-1l3 1 1 2v2l-1 1zm-4-4h-1a4 4 0 00-2 1v1h1a24 24 0 003 0h2l-1-2h-2zM142 133a365 365 0 01-7 4l-1 3-1 3-1 1-1 1-1-1v-2a74 74 0 010-12h1l1 1a84 84 0 000 6l1-2a11 11 0 015-3l3-1h1l1 1-1 1zM153 140h-7v3l2 1h1a6 6 0 002-1h3v1l-2 2h-6l-2-2-1-2v-3-2l2-2 2-1h3l2 1 2 2v2l-1 1zm-4-4h-1a4 4 0 00-2 1v1h1a25 25 0 003 0l2-1-1-1h-2z" fill="#fff"/></svg>