<svg width="176" height="149" fill="none" xmlns="http://www.w3.org/2000/svg"><path fill-rule="evenodd" clip-rule="evenodd" d="M.8 125.7C27 112.8 40 97.7 40 80.2a43.4 43.4 0 01-27.7-13.8c-7.3-7.8-11-17-11-27.3a39 39 0 0110.7-27.8C19 3.8 28 0 38.8 0 51 0 61.3 4.9 70.1 14.7a51.5 51.5 0 0113.3 35.7c0 42-23.5 74.9-70.4 98.6L.8 125.7zm92.6 0c26.5-12.9 39.7-28 39.7-45.5a43.7 43.7 0 01-28-13.8c-7.4-7.8-11-17-11-27.3 0-11 3.5-20.2 10.7-27.8a35.7 35.7 0 0127-11.3c12 0 22.4 4.9 31.1 14.7 8.7 9.8 13.1 21.7 13.1 35.7 0 42-23.3 74.9-70 98.6l-12.6-23.3z" fill="#fff"/></svg>