<svg width="162" height="83" fill="none" xmlns="http://www.w3.org/2000/svg"><path d="M15.7 14.8l-.6 1.8a220.9 220.9 0 00-1.7 6.8c-.1.8-.6 1.1-1.4 1l-.8-.4c-.2-.2-.3-.6-.2-1a59.8 59.8 0 011.8-7.5 154.6 154.6 0 01-3.1-11v-.9l.3-.5.6-.3.9.3c.2 0 .5.3.6.6a39 39 0 001 4.4 82.7 82.7 0 001.3 4.1 76.9 76.9 0 008-8.4c.5-.5.9-.7 1.3-.7s.6.1.8.4c.2.2.3.5.3.8 0 .4-.1.7-.3 1a58.8 58.8 0 01-4.4 4.8 265 265 0 01-4.4 4.7zM35.3 13.1a5 5 0 011.7 1.7c.5.6.8 1.4 1 2.1v2.3c0 .8-.3 1.5-.6 2.1A13.2 13.2 0 0134 25c-.6.5-1.4.8-2.2 1a5.8 5.8 0 01-5-1.1 5.4 5.4 0 01-1.5-2.3 8 8 0 01-.3-2.8 11.6 11.6 0 011.5-5c.4-.7.8-1.2 1.3-1.7s1-.8 1.6-1.1c.5-.3 1.2-.3 1.8-.2.4 0 .8.2 1.4.5l1.4.8c.4-.2.8-.2 1.3.1zm-2 2.6l-1-.9c-.2-.4-.5-.6-.8-.6-.3 0-.7 0-1 .2l-1 1a9.3 9.3 0 00-1.3 1.9 9.9 9.9 0 00-.5 3c0 .6 0 1.1.3 1.6.2.5.6.9 1.2 1.1.4.2.8.3 1.3.3s1-.2 1.6-.4l1.6-1c.5-.5 1-1 1.3-1.7.4-.7.6-1.5.5-2.4-.1-.8-.5-1.5-1.2-2a1 1 0 01-1 0zM45.2 17a63.3 63.3 0 00-1.7 4.7l-.4 2c0 .7 0 1.2.3 1.5.4.2 1 0 1.6-.3.7-.3 1.3-.8 2-1.4a17.4 17.4 0 003.3-4.1l.4-1 .3-1c0-.2.2-.4.5-.5.3-.2.6-.2.8-.2l.4.1.4.5.3.5.1.7a60.6 60.6 0 00-.3 10.8c0 .3-.1.7-.4 1-.3.3-.6.5-1 .5-.2 0-.4 0-.7-.2-.2-.1-.3-.4-.4-.7a14.7 14.7 0 01-.2-3.2 90.8 90.8 0 00.2-3.1 19.3 19.3 0 01-4 3.6 8 8 0 01-2 1c-.8.2-1.5.2-2.2 0-1-.3-1.7-1.5-1.9-3.4l.1-2.5a29.5 29.5 0 012.4-6.9c0-.2.2-.4.4-.5.2-.1.4-.2.6 0 .4 0 .7.4 1 .8.2.5.2.9 0 1.3zM70 19.4a412.1 412.1 0 01-3.3 1.3 10 10 0 00-3.2 2.7c-.7.9-1.3 1.9-1.7 2.9l-.8 3c-.1.4-.3.9-.7 1.3-.2.5-.6.7-1 .6-.5 0-.8-.4-1-1-.3-.5-.4-1-.4-1.6a74.3 74.3 0 010-11.3c.2-.4.3-.6.5-.6.3-.1.6-.1.8 0 .3 0 .6.2.9.4.3.2.4.4.4.7a83.8 83.8 0 00-.2 6 7 7 0 011.4-2.5 10.7 10.7 0 014.8-3.3c1-.3 2-.5 2.9-.5l1 .2c.2.1.4.2.4.4v.6c-.1.3-.4.5-.8.7zM87.6 36.6l-.5.8c-.1.2-.4.2-.7.2-.4-.1-.8-.4-1-.8-.3-.3-.4-.6-.4-.8a79.5 79.5 0 001.6-14.7l.3-.3.5-.3.5.1c.3.2.5.3.6.6a3.7 3.7 0 01.7 1.6 73.5 73.5 0 01-.2 3.8l2-.8a8.5 8.5 0 003-2.5c.3-.5.5-1 .5-1.7 0-.4 0-.8-.3-1.3-.3-.4-.8-.8-1.5-1-1.5-.7-3-1-4.3-.9-1.4.1-2.7.4-4 1l-1 .3c-.3 0-.6 0-.8-.2a1 1 0 01-.4-.4v-.5c0-.6.5-1.1 1-1.5l2-1a13.2 13.2 0 016.6 0c1.2.2 2.3.6 3.2 1.3 1 .7 1.6 1.6 2 2.8.2 1.4.1 2.6-.4 3.6-.4 1-1 2-2 2.7a15 15 0 01-2.9 2l-3 1.4a75.7 75.7 0 01-1.1 6.5zM103 21.2l-.5 2.1-.4 2.5a86.2 86.2 0 01-.8 5.2 10.7 10.7 0 012.7-2.6 7 7 0 011.6-.7h1.7c.7 0 1.2.4 1.7 1 .4.4.8 1 1 1.8.3.8.5 1.6.6 2.5l.1 2.8a23 23 0 01-.2 4.6c0 .4-.2.8-.5 1a1 1 0 01-.8.3c-.2 0-.4-.3-.7-.6L108 40v-1.4a88.6 88.6 0 00.1-4.2c0-.7-.1-1.4-.3-2 0-.6-.3-1.1-.5-1.5-.3-.4-.6-.5-1-.5-.7 0-1.4.3-2 1a16 16 0 00-1.8 2.5 31.3 31.3 0 00-2.3 5.3 2 2 0 01-.6.9c-.2.1-.4.2-.6.1-.2 0-.4-.2-.5-.4l-.3-.8a14 14 0 01-.3-2 133 133 0 012.4-16.5c.3-1.3.9-1.8 1.8-1.5.3.1.5.4.7.8.1.5.2 1 .1 1.4zM124.8 28.9a5 5 0 011.8 1.6 6.5 6.5 0 011 4.5c-.1.8-.3 1.5-.6 2.1a13 13 0 01-3.4 3.6c-.7.5-1.4.8-2.2 1a5.8 5.8 0 01-5.1-1.2 5.4 5.4 0 01-1.4-2.2 8 8 0 01-.4-2.8 11.6 11.6 0 011.5-5c.4-.7.8-1.3 1.3-1.7.5-.5 1-.9 1.6-1.1.6-.3 1.2-.3 1.9-.2.3 0 .8.2 1.3.5l1.4.8c.4-.2.9-.2 1.3 0zm-2 2.6l-.9-.9c-.3-.4-.6-.6-.9-.6-.3 0-.6 0-1 .2l-1 1a9.4 9.4 0 00-1.2 1.9 9.8 9.8 0 00-.6 3c0 .6.1 1 .4 1.6.2.5.6.8 1.2 1.1.3.2.8.3 1.3.3s1-.2 1.5-.4l1.6-1c.6-.5 1-1 1.4-1.7.4-.7.5-1.5.4-2.4 0-.8-.5-1.5-1.2-2a1 1 0 01-1 0zM140 34.9c.6 0 1 .2 1.5.6.5.3.6.8.5 1.3 0 .5-.4.7-.9.8h-1a39.7 39.7 0 00-3.6-.5 322.1 322.1 0 01-1.3 5.8v.6l1.9-.1a46.6 46.6 0 006.3-1.7h.7c.2 0 .4.2.4.4 0 .3-.1.7-.3 1-.2.4-.5.8-1 1a19.2 19.2 0 01-4 1.7l-2.4.6h-2c-.9 0-1.5-.3-1.9-1-.3-.6-.4-1.3-.3-2.2a34.9 34.9 0 011.2-6.4 250 250 0 00-2.8-.2c-.3 0-.7-.2-1.1-.4-.4-.3-.5-.6-.4-1 0-.2 0-.4.3-.6.1-.3.5-.4 1-.5 1 0 2.3 0 3.6.2a137.3 137.3 0 012.2-7.4l.5-.3c.5 0 .9.2 1.2.6.4.3.6.6.5 1a135.3 135.3 0 00-1.7 6.3l1.5.2 1.5.2zM156.8 34.5a5 5 0 011.8 1.7 6.5 6.5 0 011 4.5c-.1.7-.3 1.4-.6 2a13.2 13.2 0 01-3.4 3.6c-.7.5-1.4.8-2.2 1a5.8 5.8 0 01-5.1-1.1 5.4 5.4 0 01-1.4-2.2 8 8 0 01-.4-2.9 11.6 11.6 0 011.5-5l1.3-1.7c.5-.4 1-.8 1.6-1 .6-.3 1.2-.4 1.9-.3l1.3.5c.5.2 1 .5 1.4.9.4-.3.9-.3 1.3 0zm-2 2.6l-.9-.8c-.3-.4-.6-.6-.9-.7-.3 0-.6 0-1 .3l-1 .9a9.3 9.3 0 00-1.2 1.9 10 10 0 00-.6 3c0 .6.1 1.1.4 1.6.2.5.6.9 1.2 1.2l1.3.2c.5 0 1-.2 1.6-.4l1.6-1c.5-.5 1-1 1.3-1.7.4-.7.5-1.5.4-2.3 0-.9-.5-1.6-1.2-2a1 1 0 01-1 0zM55.4 45.3c0 .7-.2 1.4-.4 2.2l-.4 2.4a84.7 84.7 0 01-.8 5.2 10.7 10.7 0 012.7-2.6A7 7 0 0158 52c.6-.2 1.2-.2 1.8-.1.6.1 1.2.4 1.6 1 .4.5.8 1 1 1.9.3.7.5 1.6.6 2.5l.2 2.7a23 23 0 01-.2 4.6c-.1.5-.3.8-.5 1a1 1 0 01-.9.3c-.2 0-.4-.2-.7-.6-.2-.3-.4-.7-.4-1v-1.5a86.4 86.4 0 000-4.2c0-.7 0-1.4-.2-2-.1-.6-.3-1-.6-1.5-.2-.3-.6-.5-1-.5-.7 0-1.4.4-2 1a16 16 0 00-1.7 2.5 31.2 31.2 0 00-2.3 5.3 2 2 0 01-.6 1h-.6c-.3 0-.4-.1-.6-.4l-.3-.8a14 14 0 01-.3-2A132.4 132.4 0 0153 44.7c.2-1.3.8-1.8 1.7-1.5.3.1.6.4.7.9.2.4.2.9.1 1.3zM77 57.6c-1 .4-2.3.7-3.5.8a15 15 0 01-4-.2c0 1 .1 1.7.5 2.4.4.6.9 1 1.6 1.2.4.2.8.2 1.3.2a5.6 5.6 0 002.4-.5l1-.5c.2-.2.5-.3.8-.3h.6c.3.3.4.7.1 1.3-.5.8-1.3 1.4-2.2 1.9-.8.4-1.8.6-2.8.6a6 6 0 01-2.6-.6c-.8-.3-1.5-1-2.1-1.8-.5-.7-.9-1.5-1-2.3-.2-.9-.2-1.8-.2-2.7 0-.8.3-1.5.6-2.2.4-.7.9-1.3 1.4-1.8a6.2 6.2 0 014.6-1.3c1.2.1 2.2.5 3 1.2.8.7 1.4 1.5 1.6 2.4.1.6 0 1-.1 1.3-.1.4-.5.7-1 .9zM73 54l-1 .1a4 4 0 00-1.6 1c-.3.2-.4.4-.5.7l1.5.2a24.7 24.7 0 003.1-.2c.5 0 .9-.2 1.2-.3-.1-.6-.5-1-1-1.1-.6-.3-1.1-.4-1.7-.4zM93.9 56a391.4 391.4 0 01-3.4 1.4 10 10 0 00-3.2 2.7c-.7.9-1.3 1.9-1.6 2.9l-1 3c0 .4-.2.9-.5 1.3-.3.5-.7.7-1 .6-.6-.1-1-.4-1.2-1a74.3 74.3 0 01-.2-13c0-.3.2-.5.4-.5.3-.1.6-.1.8 0 .4 0 .6.2 1 .4.2.1.3.4.3.7a83.8 83.8 0 00-.1 6 7 7 0 011.3-2.5 10.7 10.7 0 014.8-3.3c1-.3 2-.5 2.9-.5l1 .2.5.4-.1.6c-.1.3-.4.5-.7.7zM105 62.5c-1.1.4-2.3.7-3.6.9a15 15 0 01-3.9-.2c0 .9 0 1.7.4 2.3.4.6 1 1 1.6 1.3l1.3.1a5.6 5.6 0 002.5-.5l1-.5c.2-.2.5-.2.7-.2h.6c.4.2.4.6.2 1.3a6.1 6.1 0 01-5 2.5 6 6 0 01-2.6-.6c-.8-.4-1.6-1-2.2-1.8-.5-.7-.8-1.5-1-2.4-.1-.9-.2-1.7-.1-2.6a5.6 5.6 0 012-4c.6-.5 1.3-1 2-1.2.8-.2 1.7-.3 2.6-.2 1.2.2 2.1.6 3 1.2.8.7 1.3 1.5 1.5 2.5.2.5.1 1 0 1.3-.2.3-.5.6-1 .8zm-4-3.5c-.3 0-.6 0-1 .2a4 4 0 00-1.7.9l-.4.8 1.4.1a24.8 24.8 0 003.2-.2l1.2-.3c-.2-.5-.5-1-1-1.1-.6-.2-1.2-.4-1.7-.4z" fill="#fff"/></svg>